<svg width="40" height="40" viewBox="0 0 40 40" fill="none" xmlns="http://www.w3.org/2000/svg">
<g clip-path="url(#clip0_406_3191)">
<g clip-path="url(#clip1_406_3191)">
<path fill-rule="evenodd" clip-rule="evenodd" d="M39.25 19.875C39.25 30.5755 30.5755 39.25 19.875 39.25C9.17448 39.25 0.5 30.5755 0.5 19.875C0.5 9.17448 9.17448 0.5 19.875 0.5C30.5755 0.5 39.25 9.17448 39.25 19.875ZM8.92803 19.9777L13.6565 21.5183C13.7362 21.5322 13.818 21.5272 13.8955 21.5038L13.8983 21.502L13.8987 21.5017L13.8989 21.5016C14.9917 20.8115 24.7176 14.6697 25.2792 14.4631C25.3677 14.4363 25.4336 14.4665 25.4162 14.5277C25.1909 15.3175 16.7263 22.8415 16.7263 22.8415C16.7263 22.8415 16.692 22.8805 16.6717 22.9285L16.6629 22.923L16.2216 27.6127C16.2216 27.6127 16.0369 29.0497 17.4735 27.6127C18.5363 26.5497 19.4092 25.6297 19.7916 25.2228C21.4628 26.3744 23.3082 27.68 24.089 28.3516C24.2154 28.4743 24.3653 28.5703 24.5296 28.6339C24.694 28.6975 24.8695 28.7273 25.0456 28.7216C25.7623 28.6947 25.9624 27.9074 25.9624 27.9074C25.9624 27.9074 29.3058 14.4534 29.4176 12.6507C29.4219 12.5824 29.4267 12.5237 29.4311 12.4704L29.4311 12.4703L29.4311 12.4703C29.4381 12.3858 29.444 12.3147 29.4449 12.2403C29.4507 12.0999 29.4369 11.9594 29.4039 11.8229C29.3871 11.7456 29.35 11.6741 29.2966 11.6158C29.2431 11.5575 29.1751 11.5145 29.0995 11.4911C28.794 11.375 28.2761 11.5496 28.2761 11.5496C28.2761 11.5496 9.93165 18.143 8.88395 18.8733C8.65791 19.0301 8.58235 19.1213 8.54489 19.2285C8.36293 19.7484 8.92803 19.9777 8.92803 19.9777Z" fill="#343232"/>
</g>
</g>
<defs>
<clipPath id="clip0_406_3191">
<rect width="40" height="40" fill="white"/>
</clipPath>
<clipPath id="clip1_406_3191">
<rect width="38.75" height="38.75" fill="white" transform="translate(0.5 0.5)"/>
</clipPath>
</defs>
</svg>
