<svg width="40" height="40" viewBox="0 0 40 40" fill="none" xmlns="http://www.w3.org/2000/svg">
<path d="M19.9955 13.9974C16.6903 13.9974 13.9929 16.6948 13.9929 20C13.9929 23.3052 16.6903 26.0026 19.9955 26.0026C23.3007 26.0026 25.9981 23.3052 25.9981 20C25.9981 16.6948 23.3007 13.9974 19.9955 13.9974ZM37.9987 20C37.9987 17.5143 38.0212 15.0512 37.8816 12.57C37.742 9.68803 37.0845 7.1303 34.9771 5.02288C32.8652 2.91095 30.312 2.25801 27.43 2.11842C24.9443 1.97882 22.4812 2.00134 20 2.00134C17.5143 2.00134 15.0512 1.97882 12.57 2.11842C9.68803 2.25801 7.1303 2.91546 5.02288 5.02288C2.91095 7.13481 2.25801 9.68803 2.11842 12.57C1.97882 15.0557 2.00134 17.5188 2.00134 20C2.00134 22.4812 1.97882 24.9488 2.11842 27.43C2.25801 30.312 2.91546 32.8697 5.02288 34.9771C7.13481 37.089 9.68803 37.742 12.57 37.8816C15.0557 38.0212 17.5188 37.9987 20 37.9987C22.4857 37.9987 24.9488 38.0212 27.43 37.8816C30.312 37.742 32.8697 37.0845 34.9771 34.9771C37.089 32.8652 37.742 30.312 37.8816 27.43C38.0257 24.9488 37.9987 22.4857 37.9987 20ZM19.9955 29.2357C14.8845 29.2357 10.7598 25.111 10.7598 20C10.7598 14.889 14.8845 10.7643 19.9955 10.7643C25.1065 10.7643 29.2312 14.889 29.2312 20C29.2312 25.111 25.1065 29.2357 19.9955 29.2357ZM29.6095 12.543C28.4162 12.543 27.4525 11.5793 27.4525 10.386C27.4525 9.1927 28.4162 8.22905 29.6095 8.22905C30.8028 8.22905 31.7665 9.1927 31.7665 10.386C31.7668 10.6694 31.7113 10.95 31.603 11.2119C31.4947 11.4737 31.3358 11.7116 31.1355 11.912C30.9351 12.1124 30.6972 12.2712 30.4353 12.3795C30.1735 12.4878 29.8929 12.5433 29.6095 12.543Z" fill="#343232"/>
</svg>
