<svg width="40" height="40" viewBox="0 0 40 40" fill="none" xmlns="http://www.w3.org/2000/svg">
<g clip-path="url(#clip0_406_3208)">
<g clip-path="url(#clip1_406_3208)">
<path d="M19.875 39.25C30.5755 39.25 39.25 30.5755 39.25 19.875C39.25 9.17448 30.5755 0.5 19.875 0.5C9.17448 0.5 0.5 9.17448 0.5 19.875C0.5 30.5755 9.17448 39.25 19.875 39.25Z" fill="url(#paint0_linear_406_3208)"/>
<path d="M13.6152 21.2913L15.9139 27.6537C15.9139 27.6537 16.2013 28.249 16.5091 28.249C16.8168 28.249 21.394 23.4873 21.394 23.4873L26.4839 13.6561L13.6973 19.6489L13.6152 21.2913Z" fill="#C8DAEA"/>
<path d="M16.6629 22.923L16.2216 27.6127C16.2216 27.6127 16.0369 29.0497 17.4735 27.6127C18.9102 26.1757 20.2853 25.0677 20.2853 25.0677" fill="#A9C6D8"/>
<path d="M13.6565 21.5183L8.92803 19.9777C8.92803 19.9777 8.36293 19.7484 8.54489 19.2285C8.58235 19.1213 8.65791 19.0301 8.88395 18.8733C9.93166 18.143 28.2761 11.5496 28.2761 11.5496C28.2761 11.5496 28.794 11.375 29.0995 11.4911C29.1751 11.5145 29.2431 11.5575 29.2966 11.6158C29.35 11.6741 29.3871 11.7456 29.4039 11.8229C29.4369 11.9594 29.4507 12.0999 29.4449 12.2403C29.4434 12.3617 29.4287 12.4742 29.4176 12.6507C29.3058 14.4534 25.9624 27.9074 25.9624 27.9074C25.9624 27.9074 25.7623 28.6947 25.0456 28.7216C24.8695 28.7273 24.694 28.6975 24.5296 28.6339C24.3653 28.5703 24.2154 28.4743 24.089 28.3516C22.6825 27.1417 17.8213 23.8748 16.7471 23.1563C16.7229 23.1398 16.7025 23.1183 16.6873 23.0932C16.6721 23.0682 16.6624 23.0401 16.659 23.011C16.644 22.9353 16.7263 22.8415 16.7263 22.8415C16.7263 22.8415 25.1909 15.3175 25.4162 14.5277C25.4336 14.4665 25.3677 14.4363 25.2792 14.4631C24.717 14.6699 14.9711 20.8245 13.8955 21.5038C13.818 21.5272 13.7362 21.5322 13.6565 21.5183Z" fill="white"/>
</g>
</g>
<defs>
<linearGradient id="paint0_linear_406_3208" x1="19.875" y1="39.25" x2="19.875" y2="0.5" gradientUnits="userSpaceOnUse">
<stop stop-color="#1D93D2"/>
<stop offset="1" stop-color="#38B0E3"/>
</linearGradient>
<clipPath id="clip0_406_3208">
<rect width="40" height="40" fill="white"/>
</clipPath>
<clipPath id="clip1_406_3208">
<rect width="38.75" height="38.75" fill="white" transform="translate(0.5 0.5)"/>
</clipPath>
</defs>
</svg>
