<svg width="12" height="14" viewBox="0 0 12 14" fill="none" xmlns="http://www.w3.org/2000/svg">
<path d="M3.625 1.87354H3.5C3.56875 1.87354 3.625 1.81729 3.625 1.74854V1.87354H8.375V1.74854C8.375 1.81729 8.43125 1.87354 8.5 1.87354H8.375V2.99854H9.5V1.74854C9.5 1.19697 9.05156 0.748535 8.5 0.748535H3.5C2.94844 0.748535 2.5 1.19697 2.5 1.74854V2.99854H3.625V1.87354ZM11.5 2.99854H0.5C0.223438 2.99854 0 3.22197 0 3.49854V3.99854C0 4.06729 0.05625 4.12354 0.125 4.12354H1.06875L1.45469 12.2954C1.47969 12.8282 1.92031 13.2485 2.45313 13.2485H9.54688C10.0813 13.2485 10.5203 12.8298 10.5453 12.2954L10.9313 4.12354H11.875C11.9438 4.12354 12 4.06729 12 3.99854V3.49854C12 3.22197 11.7766 2.99854 11.5 2.99854ZM9.42656 12.1235H2.57344L2.19531 4.12354H9.80469L9.42656 12.1235Z"/>
</svg>
