<svg width="12" height="14" viewBox="0 0 12 14" fill="none" xmlns="http://www.w3.org/2000/svg">
<path d="M10.1761 2.07449C8.70421 0.602612 6.30734 0.602612 4.83703 2.07449L0.758901 6.14949C0.732339 6.17605 0.718276 6.21199 0.718276 6.24949C0.718276 6.28699 0.732339 6.32293 0.758901 6.34949L1.33546 6.92605C1.36182 6.95229 1.39749 6.96702 1.43468 6.96702C1.47187 6.96702 1.50755 6.95229 1.5339 6.92605L5.61203 2.85105C6.11828 2.3448 6.79171 2.06667 7.50734 2.06667C8.22296 2.06667 8.8964 2.3448 9.40109 2.85105C9.90734 3.3573 10.1855 4.03074 10.1855 4.7448C10.1855 5.46042 9.90734 6.1323 9.40109 6.63855L5.24484 10.7932L4.5714 11.4667C3.94171 12.0964 2.91828 12.0964 2.28859 11.4667C1.9839 11.162 1.81671 10.7573 1.81671 10.3261C1.81671 9.8948 1.9839 9.49011 2.28859 9.18543L6.41203 5.06355C6.51671 4.96042 6.65421 4.90261 6.80109 4.90261H6.80265C6.94953 4.90261 7.08546 4.96042 7.18859 5.06355C7.29328 5.16824 7.34953 5.30574 7.34953 5.45261C7.34953 5.59793 7.29171 5.73542 7.18859 5.83855L3.81828 9.20574C3.79171 9.2323 3.77765 9.26824 3.77765 9.30574C3.77765 9.34324 3.79171 9.37918 3.81828 9.40574L4.39484 9.9823C4.42119 10.0085 4.45687 10.0233 4.49406 10.0233C4.53125 10.0233 4.56692 10.0085 4.59328 9.9823L7.96203 6.61355C8.27296 6.30261 8.44328 5.89011 8.44328 5.45105C8.44328 5.01199 8.2714 4.59792 7.96203 4.28855C7.31984 3.64636 6.27609 3.64792 5.6339 4.28855L5.2339 4.69011L1.51203 8.41043C1.25942 8.66155 1.05918 8.96033 0.922925 9.28943C0.78667 9.61854 0.717109 9.97142 0.718276 10.3276C0.718276 11.0511 1.00109 11.7307 1.51203 12.2417C2.04171 12.7698 2.73546 13.0339 3.42921 13.0339C4.12296 13.0339 4.81671 12.7698 5.34484 12.2417L10.1761 7.41355C10.887 6.70105 11.2808 5.75261 11.2808 4.7448C11.2823 3.73542 10.8886 2.78699 10.1761 2.07449Z" fill="black" fill-opacity="0.45"/>
</svg>
