<svg width="12" height="14" viewBox="0 0 12 14" fill="none" xmlns="http://www.w3.org/2000/svg">
<mask id="mask0_440_203" style="mask-type:luminance" maskUnits="userSpaceOnUse" x="0" y="8" width="12" height="6">
<path fill-rule="evenodd" clip-rule="evenodd" d="M0.666748 8.66406H11.2267V13.5801H0.666748V8.66406Z" fill="white"/>
</mask>
<g mask="url(#mask0_440_203)">
<path fill-rule="evenodd" clip-rule="evenodd" d="M5.94741 9.66406C3.10675 9.66406 1.66675 10.1521 1.66675 11.1154C1.66675 12.0874 3.10675 12.5801 5.94741 12.5801C8.78741 12.5801 10.2267 12.0921 10.2267 11.1287C10.2267 10.1567 8.78741 9.66406 5.94741 9.66406ZM5.94741 13.5801C4.64141 13.5801 0.666748 13.5801 0.666748 11.1154C0.666748 8.91806 3.68075 8.66406 5.94741 8.66406C7.25341 8.66406 11.2267 8.66406 11.2267 11.1287C11.2267 13.3261 8.21341 13.5801 5.94741 13.5801Z" fill="#61646B"/>
</g>
<mask id="mask1_440_203" style="mask-type:luminance" maskUnits="userSpaceOnUse" x="2" y="0" width="8" height="8">
<path fill-rule="evenodd" clip-rule="evenodd" d="M2.40674 0.333496H9.48676V7.41256H2.40674V0.333496Z" fill="white"/>
</mask>
<g mask="url(#mask1_440_203)">
<path fill-rule="evenodd" clip-rule="evenodd" d="M5.94743 1.28525C4.52009 1.28525 3.35876 2.44592 3.35876 3.87325C3.35409 5.29592 4.50676 6.45592 5.92809 6.46125L5.94743 6.93725V6.46125C7.37409 6.46125 8.53476 5.29992 8.53476 3.87325C8.53476 2.44592 7.37409 1.28525 5.94743 1.28525ZM5.94743 7.41259H5.92609C3.97809 7.40659 2.40009 5.81792 2.40676 3.87125C2.40676 1.92125 3.99476 0.333252 5.94743 0.333252C7.89943 0.333252 9.48676 1.92125 9.48676 3.87325C9.48676 5.82525 7.89943 7.41259 5.94743 7.41259Z" fill="#61646B"/>
</g>
</svg>
