<svg width="32" height="32" viewBox="0 0 32 32" fill="none" xmlns="http://www.w3.org/2000/svg">
<path d="M12.5 9.9281H14.8094V20.5C14.8094 20.6375 14.9219 20.75 15.0594 20.75H16.9344C17.0719 20.75 17.1844 20.6375 17.1844 20.5V9.9281H19.5C19.7094 9.9281 19.825 9.68747 19.6969 9.52497L16.1969 5.09372C16.1735 5.06384 16.1436 5.03968 16.1095 5.02306C16.0754 5.00644 16.0379 4.9978 16 4.9978C15.9621 4.9978 15.9246 5.00644 15.8905 5.02306C15.8564 5.03968 15.8265 5.06384 15.8031 5.09372L12.3031 9.52185C12.175 9.68747 12.2906 9.9281 12.5 9.9281ZM27.4375 19.5625H25.5625C25.425 19.5625 25.3125 19.675 25.3125 19.8125V24.625H6.6875V19.8125C6.6875 19.675 6.575 19.5625 6.4375 19.5625H4.5625C4.425 19.5625 4.3125 19.675 4.3125 19.8125V26C4.3125 26.5531 4.75937 27 5.3125 27H26.6875C27.2406 27 27.6875 26.5531 27.6875 26V19.8125C27.6875 19.675 27.575 19.5625 27.4375 19.5625Z" fill="black"/>
</svg>
