<svg width="11" height="11" viewBox="0 0 11 11" fill="none" xmlns="http://www.w3.org/2000/svg">
<path d="M0.146772 0.31295C0.324283 0.135439 0.602059 0.119302 0.7978 0.264538L0.853879 0.31295L5.16699 4.62584L9.48011 0.31295C9.65762 0.135439 9.93539 0.119302 10.1311 0.264538L10.1872 0.31295C10.3647 0.490462 10.3809 0.768237 10.2356 0.963978L10.1872 1.02006L5.52055 5.68672C5.34303 5.86423 5.06526 5.88037 4.86952 5.73514L4.81344 5.68672L0.146772 1.02006C-0.0484899 0.824795 -0.0484899 0.508213 0.146772 0.31295Z" fill="#61646B"/>
<path d="M10.1869 10.5201C10.0094 10.6976 9.7316 10.7137 9.53586 10.5685L9.47978 10.5201L5.16667 6.20717L0.853553 10.5201C0.676042 10.6976 0.398266 10.7137 0.202525 10.5685L0.146447 10.5201C-0.0310643 10.3425 -0.0472019 10.0648 0.0980344 9.86903L0.146447 9.81295L4.81311 5.14628C4.99063 4.96877 5.2684 4.95264 5.46414 5.09787L5.52022 5.14628L10.1869 9.81295C10.3821 10.0082 10.3821 10.3248 10.1869 10.5201Z" fill="#61646B"/>
</svg>
