<svg width="36" height="36" viewBox="0 0 36 36" fill="none" xmlns="http://www.w3.org/2000/svg">
<rect width="36" height="36" rx="8" fill="#F2F1FA"/>
<path d="M9 11.4199C9 10.8427 9.20271 10.3665 9.60811 9.99136C10.0135 9.61617 10.5405 9.42859 11.1892 9.42859C11.8263 9.42859 12.3417 9.61328 12.7355 9.9827C13.1409 10.3637 13.3436 10.86 13.3436 11.4719C13.3436 12.026 13.1467 12.4877 12.7529 12.8572C12.3475 13.2381 11.8147 13.4286 11.1544 13.4286H11.1371C10.5 13.4286 9.98456 13.2381 9.59073 12.8572C9.19691 12.4762 9 11.9971 9 11.4199ZM9.22587 26.5714V15.0043H13.083V26.5714H9.22587ZM15.2201 26.5714H19.0772V20.1126C19.0772 19.7085 19.1236 19.3968 19.2162 19.1775C19.3784 18.785 19.6245 18.4531 19.9546 18.1818C20.2847 17.9105 20.6988 17.7749 21.1969 17.7749C22.4942 17.7749 23.1429 18.6465 23.1429 20.3896V26.5714H27V19.9394C27 18.2309 26.5946 16.9351 25.7838 16.052C24.973 15.1688 23.9015 14.7273 22.5695 14.7273C21.0753 14.7273 19.9112 15.368 19.0772 16.6494V16.684H19.0598L19.0772 16.6494V15.0043H15.2201C15.2432 15.3737 15.2548 16.5224 15.2548 18.4502C15.2548 20.3781 15.2432 23.0851 15.2201 26.5714Z" fill="#343232"/>
</svg>
