<svg width="36" height="36" viewBox="0 0 36 36" fill="none" xmlns="http://www.w3.org/2000/svg">
<rect width="36" height="36" rx="8" fill="#F2F1FA"/>
<path d="M21.0271 10.7014V10.6981H21.8711L22.1794 10.7597C22.385 10.7997 22.5717 10.8521 22.7394 10.9169C22.9071 10.9818 23.0694 11.0574 23.2263 11.1439C23.3832 11.2303 23.5255 11.3184 23.6532 11.408C23.7798 11.4967 23.8934 11.5907 23.9941 11.6901C24.0936 11.7906 24.2489 11.8165 24.4599 11.7679C24.6709 11.7192 24.8981 11.6517 25.1416 11.5653C25.385 11.4788 25.6258 11.3816 25.8638 11.2735C26.1019 11.1655 26.2469 11.0968 26.2988 11.0677C26.3497 11.0374 26.3768 11.0212 26.38 11.019L26.3832 11.0142L26.3995 11.0061L26.4157 10.998L26.4319 10.9899L26.4482 10.9818L26.4514 10.9769L26.4563 10.9737L26.4612 10.9704L26.4644 10.9656L26.4806 10.9607L26.4968 10.9575L26.4936 10.9818L26.4887 11.0061L26.4806 11.0304L26.4725 11.0547L26.4644 11.0709L26.4563 11.0871L26.4482 11.1114C26.4427 11.1276 26.4373 11.1492 26.4319 11.1763C26.4265 11.2033 26.3751 11.3113 26.2777 11.5004C26.1803 11.6895 26.0586 11.8813 25.9125 12.0758C25.7665 12.2703 25.6355 12.4173 25.5198 12.5167C25.4029 12.6172 25.3255 12.6874 25.2876 12.7274C25.2498 12.7685 25.2038 12.8063 25.1497 12.8409L25.0685 12.8944L25.0523 12.9025L25.0361 12.9106L25.0328 12.9154L25.028 12.9187L25.0231 12.9219L25.0198 12.9268L25.0036 12.9349L24.9874 12.943L24.9841 12.9478L24.9793 12.9511L24.9744 12.9543L24.9711 12.9592L24.9679 12.9641L24.963 12.9673L24.9582 12.9705L24.9549 12.9754H25.0361L25.4905 12.8782C25.7935 12.8133 26.083 12.735 26.3589 12.6431L26.7971 12.4973L26.8458 12.481L26.8702 12.4729L26.8864 12.4648L26.9026 12.4567L26.9188 12.4486L26.9351 12.4405L26.9675 12.4357L27 12.4324V12.4648L26.9919 12.4681L26.9838 12.4729L26.9805 12.4778L26.9757 12.481L26.9708 12.4843L26.9675 12.4891L26.9643 12.494L26.9594 12.4973L26.9546 12.5005L26.9513 12.5054L26.9481 12.5102L26.9432 12.5135L26.9351 12.5297L26.927 12.5459L26.9221 12.5491C26.9199 12.5524 26.8512 12.6442 26.716 12.8247C26.5807 13.0062 26.5077 13.098 26.4968 13.1002C26.486 13.1034 26.4709 13.1197 26.4514 13.1488C26.433 13.1791 26.3183 13.2996 26.1073 13.5103C25.8963 13.721 25.6897 13.9085 25.4873 14.0727C25.2839 14.238 25.1811 14.4412 25.1789 14.6821C25.1757 14.922 25.1632 15.1933 25.1416 15.4958C25.1199 15.7984 25.0794 16.1252 25.0198 16.4764C24.9603 16.8276 24.8684 17.2247 24.7439 17.6677C24.6195 18.1108 24.468 18.543 24.2894 18.9644C24.1109 19.3858 23.9243 19.764 23.7295 20.099C23.5347 20.434 23.3562 20.7176 23.1939 20.9499C23.0316 21.1823 22.8666 21.4011 22.6988 21.6064C22.5311 21.8117 22.319 22.0429 22.0626 22.3001C21.8051 22.5562 21.6644 22.6967 21.6406 22.7215C21.6157 22.7453 21.5097 22.8339 21.3225 22.9873C21.1363 23.1419 20.9362 23.2964 20.7219 23.4509C20.5088 23.6043 20.3129 23.7324 20.1344 23.835C19.9558 23.9377 19.7405 24.0549 19.4884 24.1868C19.2373 24.3197 18.9657 24.4429 18.6736 24.5563C18.3814 24.6698 18.073 24.7751 17.7484 24.8724C17.4238 24.9696 17.11 25.0453 16.807 25.0993C16.5041 25.1533 16.1605 25.1992 15.7764 25.2371L15.2002 25.2938V25.3019H14.1452V25.2938L14.0072 25.2857C13.9152 25.2803 13.8395 25.2749 13.78 25.2695C13.7205 25.2641 13.4959 25.2344 13.1064 25.1803C12.7169 25.1263 12.4112 25.0723 12.1894 25.0182C11.9675 24.9642 11.6375 24.8616 11.1993 24.7103C10.761 24.559 10.3861 24.4061 10.0745 24.2516C9.76394 24.0981 9.56917 24.0009 9.49017 23.9598C9.41226 23.9199 9.32462 23.8702 9.22723 23.8107L9.08115 23.7216L9.07792 23.7167L9.07304 23.7135L9.06817 23.7102L9.06492 23.7054L9.04869 23.6973L9.03246 23.6892L9.02923 23.6843L9.02435 23.6811L9.01948 23.6778L9.01623 23.673L9.013 23.6681L9.00812 23.6648H9V23.6324L9.01623 23.6357L9.03246 23.6405L9.1055 23.6486C9.15419 23.654 9.28675 23.6621 9.50316 23.673C9.71958 23.6838 9.9495 23.6838 10.193 23.673C10.4364 23.6621 10.6853 23.6378 10.9396 23.6C11.1939 23.5622 11.4941 23.4974 11.8404 23.4055C12.1867 23.3137 12.5048 23.2045 12.7948 23.0781C13.0837 22.9506 13.2893 22.8555 13.4116 22.7928C13.5327 22.7312 13.7178 22.6167 13.9666 22.4492L14.3399 22.198L14.3432 22.1931L14.3481 22.1899L14.3529 22.1866L14.3562 22.1818L14.3594 22.1769L14.3643 22.1737L14.3692 22.1704L14.3724 22.1656L14.3886 22.1607L14.4049 22.1575L14.4081 22.1413L14.413 22.125L14.4179 22.1218L14.4211 22.1169L14.2913 22.1088C14.2047 22.1034 14.1208 22.098 14.0397 22.0926C13.9585 22.0872 13.8314 22.0629 13.6583 22.0197C13.4851 21.9765 13.2985 21.9116 13.0983 21.8252C12.8981 21.7388 12.7033 21.6361 12.514 21.5172C12.3246 21.3984 12.1877 21.2995 12.1033 21.2206C12.02 21.1428 11.9118 21.0326 11.7787 20.89C11.6467 20.7463 11.532 20.5988 11.4346 20.4475C11.3372 20.2962 11.2442 20.1217 11.1555 19.9239L11.0207 19.629L11.0126 19.6046L11.0045 19.5803L10.9996 19.5641L10.9964 19.5479L11.0207 19.5512L11.0451 19.556L11.2236 19.5803C11.3427 19.5965 11.5293 19.6019 11.7836 19.5965C12.0379 19.5911 12.2137 19.5803 12.3111 19.5641C12.4085 19.5479 12.468 19.5371 12.4896 19.5317L12.5221 19.5236L12.5627 19.5155L12.6032 19.5074L12.6065 19.5025L12.6114 19.4993L12.6162 19.496L12.6195 19.4912L12.587 19.4831L12.5546 19.475L12.5221 19.4669L12.4896 19.4588L12.4572 19.4507C12.4355 19.4453 12.3977 19.4345 12.3436 19.4182C12.2895 19.402 12.1434 19.3426 11.9053 19.24C11.6673 19.1373 11.4779 19.0373 11.3372 18.9401C11.1962 18.8426 11.0618 18.7359 10.9347 18.6208C10.8081 18.5041 10.6691 18.3539 10.5176 18.1702C10.3661 17.9865 10.2308 17.7731 10.1118 17.53C9.99279 17.2868 9.90352 17.0545 9.844 16.833C9.78472 16.6128 9.74561 16.3876 9.72716 16.1604L9.69793 15.82L9.71416 15.8232L9.73039 15.8281L9.74662 15.8362L9.76285 15.8443L9.77908 15.8524L9.79531 15.8605L10.0469 15.974C10.2146 16.0496 10.4229 16.1144 10.6718 16.1685C10.9207 16.2225 11.0694 16.2522 11.1181 16.2576L11.1912 16.2657H11.3372L11.334 16.2608L11.3291 16.2576L11.3243 16.2544L11.321 16.2495L11.3178 16.2446L11.3129 16.2414L11.308 16.2382L11.3048 16.2333L11.2885 16.2252L11.2723 16.2171L11.2691 16.2122L11.2642 16.209L11.2593 16.2057L11.2561 16.2009L11.2399 16.1928L11.2236 16.1847L11.2204 16.1798C11.2171 16.1776 11.1706 16.1431 11.0808 16.0761C10.9921 16.008 10.899 15.9199 10.8016 15.8119C10.7042 15.7038 10.6069 15.5904 10.5095 15.4715C10.4119 15.3524 10.325 15.2249 10.2498 15.0906C10.174 14.9555 10.094 14.7837 10.0096 14.5752C9.92625 14.3677 9.86294 14.1586 9.81966 13.9479C9.77639 13.7372 9.75204 13.5292 9.74662 13.3239C9.74121 13.1186 9.74662 12.943 9.76285 12.7971C9.77908 12.6512 9.81154 12.4864 9.86023 12.3028C9.90893 12.1191 9.97927 11.9246 10.0712 11.7192L10.2092 11.4113L10.2173 11.387L10.2254 11.3627L10.2303 11.3594L10.2335 11.3546L10.2368 11.3497L10.2417 11.3465L10.2465 11.3497L10.2498 11.3546L10.253 11.3594L10.2579 11.3627L10.2628 11.3659L10.266 11.3708L10.2693 11.3756L10.2741 11.3789L10.2822 11.3951L10.2904 11.4113L10.2952 11.4145L10.2985 11.4194L10.5176 11.6625C10.6637 11.8246 10.8368 12.0056 11.037 12.2055C11.2372 12.4054 11.3481 12.5091 11.3697 12.5167C11.3914 12.5253 11.4184 12.5502 11.4509 12.5913C11.4833 12.6312 11.5915 12.7269 11.7755 12.8782C11.9594 13.0294 12.2002 13.205 12.4977 13.4049C12.7953 13.6048 13.1253 13.802 13.4878 13.9965C13.8503 14.191 14.2399 14.3666 14.6564 14.5233C15.073 14.68 15.3652 14.7826 15.5329 14.8313C15.7006 14.8799 15.9874 14.942 16.3931 15.0177C16.7989 15.0933 17.1046 15.1419 17.3102 15.1635C17.5158 15.1851 17.6565 15.1976 17.7322 15.2008L17.8458 15.2041L17.8426 15.1797L17.8377 15.1554L17.8052 14.9528C17.7836 14.8178 17.7728 14.6287 17.7728 14.3855C17.7728 14.1424 17.7917 13.9182 17.8296 13.7129C17.8675 13.5076 17.9243 13.2996 18 13.0889C18.0757 12.8782 18.1499 12.709 18.2224 12.5815C18.296 12.4551 18.3923 12.3109 18.5113 12.1488C18.6303 11.9867 18.7845 11.8192 18.9739 11.6463C19.1632 11.4734 19.3796 11.3194 19.6231 11.1844C19.8665 11.0493 20.0911 10.9466 20.2967 10.8764C20.5023 10.8062 20.6754 10.7602 20.8161 10.7386C20.9567 10.717 21.0271 10.7046 21.0271 10.7014Z" fill="#343232"/>
</svg>
