<svg width="20" height="20" viewBox="0 0 20 20" fill="none" xmlns="http://www.w3.org/2000/svg">
<path d="M0.284066 0.278945C0.627625 -0.0591706 1.16524 -0.0899076 1.54408 0.186732L1.65262 0.278945L10.0003 8.49396L18.348 0.278945C18.6916 -0.0591706 19.2292 -0.0899076 19.608 0.186732L19.7165 0.278945C20.0601 0.617063 20.0914 1.14616 19.8102 1.519L19.7165 1.62582L10.6846 10.5147C10.341 10.8528 9.80342 10.8835 9.42458 10.6069L9.31604 10.5147L0.284066 1.62582C-0.0938485 1.25389 -0.0938485 0.650874 0.284066 0.278945Z" fill="#61646B"/>
<path d="M19.716 19.7211C19.3724 20.0592 18.8348 20.0899 18.4559 19.8133L18.3474 19.7211L9.99969 11.506L1.65199 19.7211C1.30843 20.0592 0.770813 20.0899 0.391971 19.8133L0.283437 19.7211C-0.0601226 19.3828 -0.0913557 18.8539 0.189738 18.481L0.283437 18.3742L9.3154 9.48527C9.65898 9.14716 10.1966 9.11644 10.5754 9.39306L10.684 9.48527L19.716 18.3742C20.0937 18.7461 20.0937 19.3491 19.716 19.7211Z" fill="#61646B"/>
</svg>
