<svg width="33" height="42" viewBox="0 0 33 42" fill="none" xmlns="http://www.w3.org/2000/svg">
<g clip-path="url(#clip0_304_3245)">
<path d="M17.0186 1.5C13.0403 1.5 9.225 3.08035 6.41195 5.8934C3.59891 8.70644 2.01855 12.5218 2.01855 16.5C2.01855 30 17.0186 40.5 17.0186 40.5C17.0186 40.5 32.0186 30 32.0186 16.5C32.0186 14.5302 31.6306 12.5796 30.8767 10.7597C30.1229 8.93986 29.018 7.28628 27.6252 5.8934C26.2323 4.50052 24.5787 3.39563 22.7588 2.64181C20.9389 1.88799 18.9884 1.5 17.0186 1.5ZM17.0186 22.5C15.8319 22.5 14.6718 22.1481 13.6851 21.4888C12.6984 20.8295 11.9294 19.8925 11.4753 18.7961C11.0212 17.6997 10.9023 16.4933 11.1338 15.3295C11.3654 14.1656 11.9368 13.0965 12.7759 12.2574C13.615 11.4182 14.6841 10.8468 15.848 10.6153C17.0119 10.3838 18.2183 10.5026 19.3147 10.9567C20.411 11.4108 21.3481 12.1799 22.0074 13.1666C22.6667 14.1533 23.0186 15.3133 23.0186 16.5C23.0186 18.0913 22.3864 19.6174 21.2612 20.7426C20.136 21.8679 18.6099 22.5 17.0186 22.5Z" fill="#0000FF"/>
<path d="M17.0186 9C15.5352 9 14.0851 9.43987 12.8518 10.264C11.6184 11.0881 10.6571 12.2594 10.0895 13.6299C9.5218 15.0003 9.37328 16.5083 9.66267 17.9632C9.95206 19.418 10.6664 20.7544 11.7153 21.8033C12.7642 22.8522 14.1005 23.5665 15.5554 23.8559C17.0102 24.1453 18.5182 23.9968 19.8887 23.4291C21.2591 22.8614 22.4305 21.9001 23.2546 20.6668C24.0787 19.4334 24.5186 17.9834 24.5186 16.5C24.5136 14.5124 23.7218 12.6076 22.3164 11.2022C20.9109 9.79672 19.0062 9.00495 17.0186 9ZM17.0186 21C16.1285 21 15.2585 20.7361 14.5185 20.2416C13.7785 19.7471 13.2017 19.0443 12.8611 18.2221C12.5205 17.3998 12.4314 16.495 12.605 15.6221C12.7787 14.7492 13.2072 13.9474 13.8366 13.318C14.4659 12.6887 15.2677 12.2601 16.1407 12.0865C17.0136 11.9128 17.9184 12.0019 18.7406 12.3425C19.5629 12.6831 20.2657 13.2599 20.7602 13.9999C21.2546 14.74 21.5186 15.61 21.5186 16.5C21.5136 17.692 21.0379 18.8337 20.1951 19.6765C19.3522 20.5194 18.2105 20.9951 17.0186 21Z" fill="black"/>
<path d="M16.5 0C12.1255 0.00496262 7.9315 1.74494 4.83822 4.83822C1.74495 7.93149 0.00496262 12.1255 0 16.5C0 22.3875 2.71875 28.6312 7.875 34.5375C10.1928 37.2128 12.7957 39.6271 15.6375 41.7375C15.893 41.9076 16.1931 41.9984 16.5 41.9984C16.8069 41.9984 17.107 41.9076 17.3625 41.7375C20.2126 39.6303 22.822 37.2157 25.1438 34.5375C30.2813 28.6312 33 22.3875 33 16.5C32.995 12.1255 31.2551 7.93149 28.1618 4.83822C25.0685 1.74494 20.8746 0.00496262 16.5 0ZM16.5 38.625C13.4063 36.1875 3 27.225 3 16.5C3 12.9196 4.42232 9.4858 6.95406 6.95406C9.4858 4.42232 12.9196 3 16.5 3C20.0804 3 23.5142 4.42232 26.0459 6.95406C28.5777 9.4858 30 12.9196 30 16.5C30 27.225 19.5938 36.1875 16.5 38.625Z" fill="black"/>
</g>
<defs>
<clipPath id="clip0_304_3245">
<rect width="33" height="42" fill="white"/>
</clipPath>
</defs>
</svg>
